HIERARCHY
ROOT Hips
{
	OFFSET 0.000000 0.000000 0.000000 
	CHANNELS 6 Xposition Yposition Zposition Yrotation Zrotation Xrotation 
	JOINT Lumbar
	{
		OFFSET 0.000000 0.000000 0.000000 
		CHANNELS 3 Zrotation Xrotation Yrotation
		JOINT Neck
		{
			OFFSET 0.000000 0.445665 0.000000 
			CHANNELS 3 Zrotation Xrotation Yrotation
			End Site
			{
				OFFSET 0.000000 0.227535 0.000000 
			}
		}
		JOINT RightShoulder
		{
			OFFSET 0.019635 0.377685 0.194865 
			CHANNELS 3 Zrotation Xrotation Yrotation
			JOINT RightElbow
			{
				OFFSET 0.000000 -0.243375 0.000000 
				CHANNELS 2 Zrotation Yrotation
				JOINT RightWrist
				{
					OFFSET 0.000000 -0.264825 0.000000 
					CHANNELS 2 Zrotation Xrotation
					End Site
					{
						OFFSET 0.006600 -0.176220 0.000990 
					}
				}
			}
		}
		JOINT LeftShoulder
		{
			OFFSET 0.019635 0.377685 -0.194865 
			CHANNELS 3 Zrotation Xrotation Yrotation
			JOINT LeftElbow
			{
				OFFSET 0.000000 -0.243375 0.000000 
				CHANNELS 2 Zrotation Yrotation
				JOINT LeftWrist
				{
					OFFSET 0.000000 -0.264825 0.000000 
					CHANNELS 2 Zrotation Xrotation
					End Site
					{
						OFFSET 0.006600 -0.176220 -0.000990 
					}
				}
			}
		}
	}
	JOINT RightHip
	{
		OFFSET 0.052140 -0.069960 0.075570 
		CHANNELS 3 Zrotation Xrotation Yrotation
		JOINT RightKnee
		{
			OFFSET 0.000000 -0.402270 0.000000 
			CHANNELS 1 Zrotation
			JOINT RightAnkle
			{
				OFFSET 0.000000 -0.404085 0.000000 
				CHANNELS 3 Zrotation Xrotation Yrotation
				End Site
				{
					OFFSET 0.204105 -0.089430 0.008415 
				}
			}
		}
	}
	JOINT LeftHip
	{
		OFFSET 0.052140 -0.069960 -0.075570 
		CHANNELS 3 Zrotation Xrotation Yrotation
		JOINT LeftKnee
		{
			OFFSET 0.000000 -0.402270 0.000000 
			CHANNELS 1 Zrotation
			JOINT LeftAnkle
			{
				OFFSET 0.000000 -0.404085 0.000000 
				CHANNELS 3 Zrotation Xrotation Yrotation
				End Site
				{
					OFFSET 0.204105 -0.089430 -0.008415 
				}
			}
		}
	}
}
MOTION
Frames: 11
Frame Time: 0.02
-0.00018 2e-05 9e-05 178.2007 -45.23892 0.27399 56.14804 0.74926 2.72341 -5.62259 -1.82097 0.04173 119.68945 -80.08261 64.17124 23.97733 98.04463 -56.18945 -6.53154 121.15276 75.20028 -64.17083 22.00714 -100.71701 -52.27724 -1.18203 52.13435 -1.46036 -3.77625 -19.67908 -8.29064 -5.19297 -3.46248 56.01869 2.68345 1.08939 -23.97728 -8.90842 4.76182 3.27662
-0.0008 3e-05 -7e-05 178.23596 -45.21957 0.27706 56.21408 0.75499 2.7713 -5.72608 -1.79842 0.04139 120.09459 -79.75126 64.1712 24.85651 99.04079 -56.49241 -6.34717 121.34058 74.91982 -64.17085 22.8015 -100.34613 -52.51519 -0.41192 52.06135 -1.48906 -3.95474 -19.67103 -8.26814 -5.1768 -3.45356 55.9589 2.71794 1.23978 -23.97553 -8.88931 4.74284 3.26484
-0.00141 4e-05 -0.00024 178.27119 -45.20023 0.28014 56.27991 0.76068 2.81903 -5.82926 -1.77593 0.04105 120.49851 -79.42061 64.17115 25.73348 100.03401 -56.79471 -6.16337 121.5277 74.64004 -64.17088 23.59366 -99.97796 -52.7526 0.3551 51.98848 -1.51763 -4.13255 -19.66301 -8.24571 -5.16067 -3.44467 55.89921 2.75238 1.38992 -23.9738 -8.87023 4.72389 3.25308
-0.00202 5e-05 -0.0004 178.30636 -45.18093 0.2832 56.34575 0.76638 2.86677 -5.93244 -1.75346 0.04071 120.90242 -79.09021 64.17111 26.61002 101.02715 -57.09677 -5.97957 121.71494 74.3604 -64.1709 24.38561 -99.60853 -52.98987 1.1227 51.91569 -1.54623 -4.31045 -19.65498 -8.22328 -5.14455 -3.43577 55.83958 2.78677 1.53987 -23.97206 -8.85117 4.70497 3.24134
-0.00264 6e-05 -0.00056 178.34154 -45.16163 0.28626 56.41179 0.77212 2.9147 -6.03593 -1.73093 0.04037 121.30751 -78.75928 64.17106 27.48861 102.02311 -57.39939 -5.79521 121.90291 74.08017 -64.17093 25.17967 -99.23566 -53.22755 1.89371 51.84279 -1.57497 -4.48911 -19.64692 -8.20079 -5.12837 -3.42684 55.77988 2.82119 1.69 -23.97031 -8.83209 4.68603 3.22959
-0.00325 7e-05 -0.00073 178.37687 -45.14223 0.28935 56.47718 0.77772 2.962 -6.13844 -1.70852 0.04004 121.70891 -78.42925 64.17102 28.36215 103.01049 -57.70104 -5.6126 122.08821 73.80138 -64.17095 25.96778 -98.87729 -53.46435 2.65236 51.77001 -1.60321 -4.66518 -19.63899 -8.1785 -5.11236 -3.41803 55.72023 2.85567 1.84015 -23.96859 -8.81301 4.66705 3.21782
-0.00387 8e-05 -0.00089 178.41185 -45.12305 0.29238 56.5438 0.7836 3.01051 -6.24283 -1.6859 0.03969 122.11737 -78.09768 64.17098 29.24475 104.01418 -58.00423 -5.42664 122.27873 73.51994 -64.17098 26.76696 -98.49057 -53.70277 3.43482 51.69706 -1.6324 -4.84613 -19.6308 -8.15583 -5.09604 -3.40899 55.66053 2.89 1.99007 -23.96683 -8.79395 4.64817 3.2061
-0.00448 0.0001 -0.00105 178.44716 -45.10369 0.29547 56.6093 0.78921 3.0579 -6.34546 -1.66347 0.03936 122.51917 -77.76767 64.17093 30.11925 105.00259 -58.30611 -5.24384 122.46433 73.24105 -64.171 27.55602 -98.1292 -53.93953 4.19572 51.62429 -1.66076 -5.02284 -19.62285 -8.13348 -5.07999 -3.40015 55.60091 2.92446 2.14022 -23.9651 -8.77487 4.6292 3.19434
-0.00509 0.00011 -0.00122 178.48287 -45.08398 0.29862 56.67343 0.79453 3.10395 -6.44606 -1.6413 0.03905 122.91358 -77.43884 64.17089 30.9833 105.97368 -58.60612 -5.06456 122.64439 72.96471 -64.17103 28.33272 -97.80208 -54.17506 4.92888 51.5516 -1.68791 -5.19339 -19.61518 -8.11163 -5.06434 -3.39161 55.54122 2.95913 2.29071 -23.96342 -8.75577 4.61012 3.18251
-0.00573 0.00012 -0.00137 178.51626 -45.0659 0.3014 56.74541 0.80163 3.1578 -6.55872 -1.61769 0.03862 123.35282 -77.10103 64.17084 31.90585 107.04855 -58.91613 -4.86399 122.85777 72.67196 -64.17106 29.18059 -97.28777 -54.42009 5.8175 51.47803 -1.72144 -5.39642 -19.60586 -8.08723 -5.04659 -3.38152 55.4814 2.99273 2.43943 -23.96147 -8.73678 4.59168 3.17103
-0.00631 0.00013 -0.00155 178.55457 -45.04462 0.30497 56.80084 0.80493 3.19512 -6.64567 -1.5971 0.03843 123.69596 -76.78361 64.1708 32.70589 107.90176 -59.20548 -4.70899 122.99991 72.41499 -64.17107 29.87817 -97.16194 -54.64346 6.38079 51.40662 -1.74186 -5.53282 -19.60005 -8.06804 -5.03313 -3.37458 55.4222 3.02853 2.59172 -23.96011 -8.71757 4.57188 3.15882
